<svg width="27" height="27" viewBox="0 0 27 27" fill="none" xmlns="http://www.w3.org/2000/svg">
<path d="M25.5 13.5V3.5C25.5 2.96957 25.2893 2.46086 24.9142 2.08579C24.5391 1.71071 24.0304 1.5 23.5 1.5H3.5C2.96957 1.5 2.46086 1.71071 2.08579 2.08579C1.71071 2.46086 1.5 2.96957 1.5 3.5V23.5C1.5 24.0304 1.71071 24.5391 2.08579 24.9142C2.46086 25.2893 2.96957 25.5 3.5 25.5H13.5" stroke="#03DBE4" stroke-width="3" stroke-linecap="round" stroke-linejoin="round"/>
<path d="M18.8335 22.8333C21.0426 22.8333 22.8335 21.0425 22.8335 18.8333C22.8335 16.6242 21.0426 14.8333 18.8335 14.8333C16.6244 14.8333 14.8335 16.6242 14.8335 18.8333C14.8335 21.0425 16.6244 22.8333 18.8335 22.8333Z" stroke="#03DBE4" stroke-width="3"/>
<path d="M22.1668 21.5L25.5002 24.1667M6.8335 8.16666H20.1668M6.8335 13.5H12.1668" stroke="#03DBE4" stroke-width="3" stroke-linecap="round" stroke-linejoin="round"/>
</svg>
