<svg width="31" height="31" viewBox="0 0 31 31" fill="none" xmlns="http://www.w3.org/2000/svg">
<path d="M30.0325 0.684152C30.4008 0.952009 30.5515 1.30915 30.4845 1.75558L26.1989 27.4699C26.1431 27.7935 25.9645 28.0446 25.6632 28.2232C25.507 28.3125 25.334 28.3571 25.1442 28.3571C25.0215 28.3571 24.8876 28.3292 24.7425 28.2734L17.1589 25.1763L13.1076 30.115C12.9068 30.3717 12.6333 30.5 12.2873 30.5C12.1423 30.5 12.0195 30.4777 11.9191 30.433C11.707 30.3549 11.5368 30.2238 11.4085 30.0396C11.2801 29.8555 11.2159 29.6518 11.2159 29.4286V23.5859L25.68 5.85714L7.78409 21.3426L1.17149 18.6306C0.758552 18.4743 0.535342 18.1674 0.50186 17.7098C0.479539 17.2634 0.658107 16.9342 1.03756 16.7221L28.8942 0.65067C29.0616 0.550223 29.2402 0.5 29.4299 0.5C29.6531 0.5 29.854 0.561384 30.0325 0.684152Z" fill="#A49CD7"/>
</svg>
