<svg width="30" height="31" viewBox="0 0 30 31" fill="none" xmlns="http://www.w3.org/2000/svg">
<path d="M29.5325 0.684152C29.9008 0.952009 30.0515 1.30915 29.9845 1.75558L25.6989 27.4699C25.6431 27.7935 25.4645 28.0446 25.1632 28.2232C25.007 28.3125 24.834 28.3571 24.6442 28.3571C24.5215 28.3571 24.3876 28.3292 24.2425 28.2734L16.6589 25.1763L12.6076 30.115C12.4068 30.3717 12.1333 30.5 11.7873 30.5C11.6423 30.5 11.5195 30.4777 11.4191 30.433C11.207 30.3549 11.0368 30.2238 10.9085 30.0396C10.7801 29.8555 10.7159 29.6518 10.7159 29.4286V23.5859L25.18 5.85714L7.28409 21.3426L0.67149 18.6306C0.258552 18.4743 0.0353416 18.1674 0.00186008 17.7098C-0.0204609 17.2634 0.158107 16.9342 0.537564 16.7221L28.3942 0.65067C28.5616 0.550223 28.7402 0.5 28.9299 0.5C29.1531 0.5 29.354 0.561384 29.5325 0.684152Z" fill="#03DBE4"/>
</svg>
