<svg width="36" height="36" viewBox="0 0 36 36" fill="none" xmlns="http://www.w3.org/2000/svg">
<path fill-rule="evenodd" clip-rule="evenodd" d="M33.5564 2.44368C33.7707 2.65809 34.0585 3.19115 33.9326 4.44975C33.8086 5.68921 33.3016 7.32665 32.3534 9.27834C32.2388 9.51407 32.121 9.74821 32 9.98071V13.9473C35.7334 8.13543 37.0659 3.12478 34.9706 1.02946C32.8585 -1.08254 27.7845 0.288183 21.9134 4.09003L23.8708 5.22009C24.8585 4.61446 25.813 4.08825 26.7218 3.64668C28.6734 2.6985 30.3109 2.1915 31.5503 2.06746C32.8089 1.94156 33.3421 2.22937 33.5564 2.44368ZM32 26.0194V22.0528C35.7334 27.8647 37.0659 32.8753 34.9706 34.9706C32.8579 37.0834 27.781 35.711 21.9074 31.9062L23.8646 30.7762C24.8545 31.3835 25.8112 31.911 26.7218 32.3534C28.6734 33.3016 30.3109 33.8086 31.5504 33.9326C32.8089 34.0585 33.3421 33.7707 33.5564 33.5564C33.7708 33.342 34.0586 32.8089 33.9326 31.5503C33.8087 30.3109 33.3017 28.6734 32.3534 26.7217C32.2388 26.486 32.121 26.2519 32 26.0194ZM12.1355 30.7762L14.0926 31.9062C8.21907 35.711 3.14223 37.0834 1.02948 34.9706C-1.06583 32.8753 0.266728 27.8648 4.00004 22.053V26.0196C3.87909 26.252 3.7613 26.4861 3.6467 26.7217C2.69851 28.6734 2.19151 30.3109 2.06748 31.5503C1.94157 32.8089 2.22938 33.342 2.4437 33.5564C2.6581 33.7707 3.19116 34.0585 4.44976 33.9326C5.68923 33.8086 7.32666 33.3016 9.27835 32.3534C10.1889 31.911 11.1456 31.3835 12.1355 30.7762ZM1.02948 1.02946C-1.06583 3.12478 0.266728 8.13525 4.00004 13.9471V9.98043C3.87908 9.74802 3.76129 9.51396 3.6467 9.27834C2.69851 7.32665 2.19151 5.68921 2.06748 4.44975C1.94157 3.19115 2.22938 2.65809 2.4437 2.44368C2.6581 2.22937 3.19116 1.94156 4.44976 2.06746C5.68923 2.1915 7.32666 2.6984 9.27835 3.64668C10.1871 4.08815 11.1415 4.61437 12.1293 5.22L14.0866 4.08993C8.2156 0.288183 3.14157 -1.08254 1.02948 1.02946ZM18 4.14L30 11.0682V24.9246L18 31.8528L6.00001 24.9246V11.0681L18 4.14ZM26 15.6836V22.6152L20 26.0793V19.1477L26 15.6836ZM16 19.1477V26.0793L10 22.6152V15.6836L16 19.1477ZM18 15.6835L12.0029 12.2211L18 8.75868L23.9971 12.2211L18 15.6835Z" fill="white"/>
</svg>
