<svg width="38" height="38" viewBox="0 0 38 38" fill="none" xmlns="http://www.w3.org/2000/svg">
<path d="M14.25 19.7363C14.2602 19.9316 14.2215 20.1264 14.1375 20.3031C14.0536 20.4798 13.9269 20.6328 13.769 20.7483C13.6111 20.8638 13.4269 20.9381 13.2331 20.9646C13.0392 20.9911 12.8419 20.9689 12.6587 20.9C11.875 20.615 11.1862 20.1875 10.5687 19.7363C9.2625 20.7338 7.7425 21.375 5.9375 21.375C5.2725 21.375 4.75 20.8525 4.75 20.1875C4.75 19.5225 5.2725 19 5.9375 19C6.9825 19 7.9325 18.6675 8.76375 18.1213C6.8875 15.9838 6.05625 13.585 6.00875 13.4425C5.795 12.825 6.1275 12.1363 6.745 11.9463C7.3625 11.7325 8.05125 12.065 8.24125 12.6825C8.24125 12.7063 8.9775 14.7487 10.5212 16.5063C12.3262 14.345 13.395 11.2812 13.9175 9.5H5.9375C5.2725 9.5 4.75 8.9775 4.75 8.3125C4.75 7.6475 5.2725 7.125 5.9375 7.125H9.5V5.9375C9.5 5.2725 10.0225 4.75 10.6875 4.75C11.3525 4.75 11.875 5.2725 11.875 5.9375V7.125H15.4375C15.7937 7.125 16.1262 7.29125 16.3638 7.5525C16.5775 7.8375 16.6725 8.19375 16.6012 8.55C16.5775 8.66875 16.4112 9.4525 16.0788 10.5212C16.8862 9.90375 17.8838 9.5 19 9.5H21.375V2.375C21.375 1.06875 20.3062 0 19 0H2.375C1.06875 0 0 1.06875 0 2.375V23.75C0 25.0562 1.06875 26.125 2.375 26.125H14.25V19.7363ZM13.4663 18.6675C13.9175 18.8337 14.2262 19.2375 14.25 19.6887V15.0813C13.7037 16.1262 13.0625 17.1475 12.3025 18.0737C12.6587 18.3113 13.0387 18.5013 13.4663 18.6675ZM35.625 11.875H19C17.6938 11.875 16.625 12.9438 16.625 14.25V35.625C16.625 36.9313 17.6938 38 19 38H35.625C36.9313 38 38 36.9313 38 35.625V14.25C38 12.9438 36.9313 11.875 35.625 11.875ZM32.5375 30.78C32.2472 30.9006 31.9213 30.9036 31.6288 30.7884C31.3363 30.6732 31.1 30.4487 30.97 30.1625L30.2337 28.5H24.3913L23.655 30.1625C23.3937 30.7563 22.6812 31.0413 22.0875 30.7563C21.4937 30.4712 21.2087 29.7825 21.4937 29.1887L26.2437 18.5012C26.6238 17.6462 28.025 17.6462 28.405 18.5012L33.155 29.1887C33.4162 29.8062 33.155 30.495 32.5375 30.78ZM25.4363 26.125H29.1887L27.3125 21.9212L25.4363 26.125Z" fill="white"/>
</svg>
