<svg width="38" height="36" viewBox="0 0 38 36" fill="none" xmlns="http://www.w3.org/2000/svg">
<path d="M35 22C35.7704 22.0004 36.5112 22.2971 37.0688 22.8288C37.6263 23.3605 37.958 24.0863 37.995 24.8558C38.0321 25.6254 37.7716 26.3797 37.2676 26.9624C36.7637 27.5451 36.0548 27.9116 35.288 27.986L35 28H10.242L13.122 30.88C13.6675 31.4236 13.9831 32.1561 14.0035 32.9259C14.0238 33.6958 13.7473 34.444 13.2312 35.0156C12.7151 35.5872 11.999 35.9384 11.2311 35.9966C10.4631 36.0547 9.70227 35.8153 9.10598 35.328L8.87798 35.122L1.21998 27.462C-0.728018 25.514 0.539982 22.228 3.20198 22.012L3.48198 22H35ZM24.88 0.879993C25.4047 0.354786 26.1056 0.0428086 26.847 0.00438875C27.5884 -0.0340311 28.3178 0.203836 28.894 0.671993L29.122 0.877993L36.78 8.53799C38.728 10.486 37.46 13.772 34.798 13.988L34.518 14H2.99998C2.22955 13.9996 1.48879 13.7028 0.931209 13.1712C0.373626 12.6395 0.0419585 11.9137 0.00493401 11.1442C-0.0320905 10.3746 0.228366 9.62033 0.732333 9.03759C1.2363 8.45485 1.94514 8.08834 2.71198 8.01399L2.99998 7.99999H27.758L24.878 5.11999C24.3162 4.55749 24.0006 3.795 24.0006 2.99999C24.0006 2.20499 24.3182 1.44249 24.88 0.879993Z" fill="#737373"/>
</svg>
