<?xml version="1.0" encoding="UTF-8"?>
<svg id="_レイヤー_1" xmlns="http://www.w3.org/2000/svg" version="1.1" xmlns:xlink="http://www.w3.org/1999/xlink" viewBox="0 0 633.11 659.07">
  <!-- Generator: Adobe Illustrator 29.3.1, SVG Export Plug-In . SVG Version: 2.1.0 Build 151)  -->
  <defs>
    <style>
      .st0 {
        fill: url(#_名称未設定グラデーション_5);
      }

      .st1 {
        fill: url(#_名称未設定グラデーション_6);
      }

      .st2 {
        fill: url(#_名称未設定グラデーション_2);
      }

      .st3 {
        fill: none;
      }

      .st4 {
        fill: url(#_名称未設定グラデーション);
      }

      .st5 {
        fill: url(#_名称未設定グラデーション_8);
      }

      .st6 {
        fill: url(#_名称未設定グラデーション_4);
      }

      .st7 {
        fill: url(#_名称未設定グラデーション_3);
      }

      .st8 {
        fill: url(#_名称未設定グラデーション_7);
      }

      .st9 {
        fill: url(#_名称未設定グラデーション_9);
      }
    </style>
    <linearGradient id="_名称未設定グラデーション" data-name="名称未設定グラデーション" x1="0" y1="409.28" x2="633.11" y2="409.28" gradientTransform="translate(0 659.22) scale(1 -1)" gradientUnits="userSpaceOnUse">
      <stop offset="0" stop-color="#005edc"/>
      <stop offset="1" stop-color="#28ffee"/>
    </linearGradient>
    <linearGradient id="_名称未設定グラデーション_2" data-name="名称未設定グラデーション 2" x1="379.03" y1="598.18" x2="629.6" y2="598.18" gradientTransform="translate(0 659.22) scale(1 -1)" gradientUnits="userSpaceOnUse">
      <stop offset="0" stop-color="#008ae4"/>
      <stop offset="1" stop-color="#00f1e8"/>
    </linearGradient>
    <linearGradient id="_名称未設定グラデーション_3" data-name="名称未設定グラデーション 3" x1="613.18" y1="498.15" x2="529.38" y2="414.35" gradientTransform="translate(0 659.22) scale(1 -1)" gradientUnits="userSpaceOnUse">
      <stop offset="0" stop-color="#ff7cc9"/>
      <stop offset=".61" stop-color="#f106eb"/>
      <stop offset="1" stop-color="#b91eeb"/>
    </linearGradient>
    <linearGradient id="_名称未設定グラデーション_4" data-name="名称未設定グラデーション 4" x1="0" y1="140.16" x2="633.11" y2="140.16" gradientTransform="translate(0 659.22) scale(1 -1)" gradientUnits="userSpaceOnUse">
      <stop offset=".5" stop-color="#0084ee"/>
      <stop offset="1" stop-color="#00d8fd"/>
    </linearGradient>
    <linearGradient id="_名称未設定グラデーション_5" data-name="名称未設定グラデーション 5" x1="0" y1="187.87" x2="633.11" y2="187.87" gradientTransform="translate(0 659.22) scale(1 -1)" gradientUnits="userSpaceOnUse">
      <stop offset="0" stop-color="#0084ee"/>
      <stop offset="1" stop-color="#00d8fd"/>
    </linearGradient>
    <linearGradient id="_名称未設定グラデーション_6" data-name="名称未設定グラデーション 6" x1="571.6" y1="3.03" x2="571.6" y2="711.46" gradientTransform="translate(0 659.22) scale(1 -1)" gradientUnits="userSpaceOnUse">
      <stop offset=".06" stop-color="#1764eb"/>
      <stop offset=".5" stop-color="#8ed3fe"/>
      <stop offset=".64" stop-color="#27a1fa"/>
    </linearGradient>
    <linearGradient id="_名称未設定グラデーション_7" data-name="名称未設定グラデーション 7" x1="181.5" y1="355.14" x2="458.9" y2="355.14" gradientTransform="translate(0 659.22) scale(1 -1)" gradientUnits="userSpaceOnUse">
      <stop offset="0" stop-color="#1de2bc"/>
      <stop offset=".32" stop-color="#728cd3"/>
      <stop offset=".68" stop-color="#8c4dec"/>
      <stop offset=".99" stop-color="#c731f7"/>
    </linearGradient>
    <linearGradient id="_名称未設定グラデーション_8" data-name="名称未設定グラデーション 8" x1="181.49" y1="286.96" x2="458.89" y2="286.96" gradientTransform="translate(0 659.22) scale(1 -1)" gradientUnits="userSpaceOnUse">
      <stop offset="0" stop-color="#1de2bc"/>
      <stop offset=".32" stop-color="#728cd3"/>
      <stop offset=".68" stop-color="#8c4dec"/>
      <stop offset=".99" stop-color="#c731f7"/>
    </linearGradient>
    <linearGradient id="_名称未設定グラデーション_9" data-name="名称未設定グラデーション 9" x1="181.49" y1="431.92" x2="458.89" y2="431.92" gradientTransform="translate(0 659.22) scale(1 -1)" gradientUnits="userSpaceOnUse">
      <stop offset="0" stop-color="#1de2bc"/>
      <stop offset=".32" stop-color="#728cd3"/>
      <stop offset=".68" stop-color="#8c4dec"/>
      <stop offset=".99" stop-color="#c731f7"/>
    </linearGradient>
  </defs>
  <path class="st4" d="M120.83,152.41c0-17.44,14.14-31.58,31.58-31.58l226.61.02L498.68,1.19c-6.2-.77-12.5-1.19-18.9-1.19H152.41C68.24,0,0,68.23,0,152.41v347.47l120.83-120.83v-226.64h0Z"/>
  <path class="st2" d="M629.6,120.88c-13.68-62.86-66.2-111.64-130.91-119.69l-119.66,119.66,250.57.03h0Z"/>
  <circle class="st7" cx="571.28" cy="202.97" r="59.25"/>
  <path class="st6" d="M479.78,538.23H152.4c-17.44,0-31.57-14.14-31.57-31.57v-127.61L0,499.88v6.78c0,84.17,68.23,152.41,152.41,152.41h328.29c10.06,0,19.88-1,29.39-2.86v-140.75c-3.81,13.15-15.93,22.78-30.31,22.78h0Z"/>
  <path class="st0" d="M633.11,506.65v-220.15h-122.19l.44,220.14c0,3.06-.46,6.01-1.27,8.8v140.75c70.1-13.7,123.01-75.43,123.01-149.55h.01Z"/>
  <path class="st1" d="M633.11,506.65v-220.15h-122.19l.44,220.14c0,3.06-.46,6.01-1.27,8.8v140.75c70.1-13.7,123.01-75.43,123.01-149.55h.01Z"/>
  <path class="st3" d="M245.36,286.41v80.82l114.74-114.74h-80.82c-18.73,0-33.92,15.19-33.92,33.92h0Z"/>
  <path class="st8" d="M245.36,286.41c0-18.73,15.19-33.92,33.92-33.92h80.82l50.38-50.38c-14.51-8.56-31.39-13.49-49.37-13.49h-81.83c-53.78,0-97.78,44-97.78,97.78v87.19c0,16.58,4.19,32.22,11.55,45.94l52.31-52.31v-80.82h0Z"/>
  <path class="st5" d="M279.28,471.39h81.82c53.78,0,97.79-44,97.79-97.79v-87.19c0-4.51-.34-8.94-.93-13.29h-65.64c1.74,4.08,2.71,8.57,2.71,13.29v87.19c0,18.73-15.19,33.92-33.92,33.92h-81.82c-18.73,0-33.92-15.19-33.92-33.92v-6.37l-52.31,52.31c16.52,30.78,49.03,51.84,86.23,51.84h0Z"/>
  <path class="st9" d="M452.78,252.49c-7.91-21.22-23.02-39.01-42.3-50.38l-50.38,50.38h92.68Z"/>
</svg>